<svg width="36" height="36" viewBox="0 0 36 36" fill="none" xmlns="http://www.w3.org/2000/svg">
<circle cx="18" cy="18" r="18" fill="#A6BCD2"/>
<path d="M27.4285 16.2857V11.1428" stroke="white" stroke-linecap="round" stroke-linejoin="round"/>
<path d="M30 13.7141H24.8572" stroke="white" stroke-linecap="round" stroke-linejoin="round"/>
<path d="M22.2856 6.85718V10.2857" stroke="white" stroke-linecap="round" stroke-linejoin="round"/>
<path d="M23.9999 8.57129H20.5713" stroke="white" stroke-linecap="round" stroke-linejoin="round"/>
<path d="M27.5035 20.6356C25.8206 21.1075 24.0425 21.123 22.3516 20.6804C20.6608 20.2379 19.1183 19.3532 17.8824 18.1174C16.6466 16.8815 15.7619 15.339 15.3194 13.6482C14.8768 11.9573 14.8923 10.1792 15.3642 8.49634C13.705 8.95814 12.1958 9.84657 10.9869 11.0732C9.77797 12.2997 8.9115 13.8217 8.4738 15.4873C8.03611 17.153 8.04245 18.9043 8.49221 20.5667C8.94197 22.2292 9.81945 23.7448 11.0372 24.9626C12.255 26.1803 13.7706 27.0578 15.4331 27.5076C17.0955 27.9573 18.8468 27.9637 20.5125 27.526C22.1781 27.0883 23.7001 26.2218 24.9266 25.0129C26.1532 23.804 27.0417 22.2948 27.5035 20.6356Z" stroke="white" stroke-linecap="round" stroke-linejoin="round"/>
</svg>
