<svg width="27" height="27" viewBox="0 0 27 27" fill="none" xmlns="http://www.w3.org/2000/svg">
<path d="M13.5 0C6.04487 0 0 6.04487 0 13.5C0 20.9551 6.04487 27 13.5 27C20.9551 27 27 20.9551 27 13.5C27 6.04487 20.9551 0 13.5 0ZM19.3309 9.09141L12.9847 17.8905C12.896 18.0143 12.7791 18.1152 12.6436 18.1848C12.5081 18.2544 12.358 18.2907 12.2057 18.2907C12.0535 18.2907 11.9033 18.2544 11.7679 18.1848C11.6324 18.1152 11.5155 18.0143 11.4268 17.8905L7.66909 12.6834C7.55458 12.5237 7.66909 12.3007 7.86496 12.3007H9.27824C9.5856 12.3007 9.8779 12.4483 10.0587 12.7015L12.2042 15.6787L16.9413 9.10949C17.1221 8.85938 17.4114 8.7087 17.7218 8.7087H19.135C19.3309 8.7087 19.4454 8.9317 19.3309 9.09141Z" fill="#5B59E0"/>
</svg>
