<svg viewBox="0 0 900 845" fill="none" xmlns="http://www.w3.org/2000/svg">
<g clip-path="url(#clip0_741_5048)">
<path d="M900 843.067C900 844.139 899.091 845 897.959 845H2.04128C0.909194 845 0 844.139 0 843.067C0 841.995 0.909194 841.134 2.04128 841.134H897.959C899.091 841.134 900 841.995 900 843.067Z" fill="#3F3D56"/>
<path d="M621.891 748.95L632.183 789.561L601.307 797.683L594.445 753.824L621.891 748.95Z" fill="#FFB6B6"/>
<path d="M671.637 617.373L639.045 643.363L618.461 674.227L647.622 692.096L697.368 638.49L671.637 617.373Z" fill="#FFB6B6"/>
<path d="M661.345 349.345L688.791 437.063C688.791 437.063 810.581 537.777 798.574 558.894C786.566 580.011 705.944 638.49 705.944 638.49C705.944 638.49 711.928 657.19 694.355 649.465C676.783 641.739 657.914 620.622 657.914 620.622C657.914 620.622 657.914 604.377 666.491 607.626C675.068 610.875 714.521 567.016 714.521 567.016L628.753 492.293V742.152C628.753 742.152 649.337 759.196 628.753 760.571C608.168 761.946 589.299 765.194 589.299 765.194C589.299 765.194 565.284 757.072 573.861 748.95L548.131 615.748L529.262 453.307L542.985 368.838L661.345 349.345Z" fill="#2F2E41"/>
<path d="M606.453 784.687C606.453 784.687 608.169 778.19 615.03 778.19H635.986C635.986 778.19 642.476 805.805 640.761 805.805C639.045 805.805 668.207 841.542 637.33 843.166C606.453 844.791 597.877 841.542 597.877 841.542L594.446 828.719C594.446 828.719 589.3 820.425 591.015 813.927C592.73 807.429 606.453 784.687 606.453 784.687Z" fill="#2F2E41"/>
<path d="M649.338 679.101C649.338 679.101 669.039 678.806 664.335 683.827C659.63 688.847 651.053 696.969 651.053 696.969C651.053 696.969 630.65 735.955 621.125 728.645C611.599 721.335 596.161 640.115 601.307 630.368C606.453 620.622 613.315 620.622 613.315 620.622L644.962 638.645C644.962 638.645 625.322 683.974 649.338 679.101Z" fill="#2F2E41"/>
<path d="M601.307 211.269L608.168 170.659L561.854 152.79L554.992 214.518L601.307 211.269Z" fill="#FFB6B6"/>
<path opacity="0.1" d="M601.307 211.269L608.168 170.659L561.854 152.79L554.992 214.518L601.307 211.269Z" fill="#0A0A0A"/>
<path d="M552.42 205.584L607.311 192.589L665.634 210.457C665.634 210.457 691.364 278.683 682.787 303.049C674.21 327.415 674.21 375.009 674.21 375.009C674.21 375.009 673.353 354.218 623.607 368.838C573.862 383.457 537.839 381.833 537.839 381.833L536.124 323.354L514.575 271.41C505.364 249.208 515.292 224.001 537.605 212.932L552.42 205.584Z" fill="#E6E6E6"/>
<path d="M804.396 396.944C812.142 405.731 813.632 416.639 807.726 421.306C801.82 425.973 790.755 422.632 783.008 413.84C779.863 410.369 777.641 406.234 776.529 401.783L744.207 364.158L759.951 352.092L793.025 388.747C797.452 390.58 801.351 393.391 804.396 396.944V396.944Z" fill="#FFB6B6"/>
<path d="M663.141 210.976L651.892 253.172L706.95 336.632L763.156 390.126L781.373 375.814L724.688 309.023L681.722 222.966L663.141 210.976Z" fill="#E6E6E6"/>
<path d="M794.21 170.247C833.418 167.503 862.232 127.201 858.566 80.2291C854.901 33.2574 820.144 -2.59636 780.935 0.147553C741.726 2.89146 712.913 43.1939 716.578 90.1657C720.244 137.137 755.001 172.991 794.21 170.247Z" fill="#FFE0B2"/>
<path d="M792.719 170.247H789.288V494.217H792.719V170.247Z" fill="#2F2E41"/>
<path d="M793.573 163.406L793.984 174.886L799.463 185.513L776.606 184.409L786.214 175.258L785.128 164.827L793.573 163.406Z" fill="#FFE0B2"/>
<path d="M589.603 183.714C615.688 183.714 636.833 163.689 636.833 138.988C636.833 114.286 615.688 94.262 589.603 94.262C563.519 94.262 542.373 114.286 542.373 138.988C542.373 163.689 563.519 183.714 589.603 183.714Z" fill="#FFB6B6"/>
<path d="M585.833 78.857C587.2 79.6125 589.031 78.4695 589.469 77.0296C589.907 75.5896 589.397 74.0608 588.89 72.641L586.342 65.4934C584.535 60.4242 582.617 55.1779 578.702 51.3195C572.795 45.496 563.406 44.0146 554.954 45.0878C544.1 46.4661 533.391 52.0318 528.344 61.2354C523.297 70.439 525.446 83.2813 534.565 89.0234C521.568 103.13 517.037 118.852 517.753 137.56C518.468 156.269 539.998 173.488 554.038 186.667C557.173 184.867 560.024 176.432 558.3 173.368C556.575 170.304 559.046 166.754 556.91 163.931C554.775 161.109 552.989 165.603 555.147 162.797C556.51 161.026 551.193 156.952 553.218 155.892C563.012 150.765 566.269 139.204 572.42 130.352C579.84 119.673 592.539 112.442 605.977 111.242C613.38 110.582 621.199 111.778 627.267 115.848C633.334 119.918 637.263 127.191 635.856 134.105C639.5 130.601 641.313 125.466 640.629 120.591C639.945 115.716 636.778 111.208 632.294 108.727C635.02 100.189 632.685 90.3678 626.357 83.7607C620.028 77.1536 594.358 78.2789 585.119 80.0178" fill="#2F2E41"/>
<path d="M584.398 111.502C572.162 112.752 563.327 122.79 555.867 132.059C551.567 137.402 547.062 143.302 547.17 150.019C547.28 156.81 552.074 162.635 554.366 169.071C558.111 179.59 554.461 192.106 545.545 199.313C554.355 200.897 563.878 194.641 565.399 186.273C567.17 176.531 559.371 167.128 560.295 157.282C561.109 148.607 568.327 141.931 574.465 135.444C580.602 128.958 586.366 120.351 583.542 112.063" fill="#2F2E41"/>
<path d="M539.356 381.019H186.559C146.552 381.019 114.119 411.732 114.119 449.618V773.58C114.119 811.466 146.551 842.178 186.559 842.178H539.356C579.363 842.178 611.795 811.466 611.795 773.58V449.618C611.795 411.732 579.363 381.019 539.356 381.019V381.019Z" fill="white"/>
<path d="M539.355 843.802H186.558C145.669 843.802 112.403 812.301 112.403 773.58V449.618C112.403 410.897 145.669 379.395 186.558 379.395H539.355C580.244 379.395 613.511 410.897 613.511 449.618V773.58C613.511 812.301 580.244 843.802 539.355 843.802ZM186.558 382.644C147.561 382.644 115.834 412.688 115.834 449.618V773.58C115.834 810.51 147.561 840.553 186.558 840.553H539.355C578.353 840.553 610.08 810.51 610.08 773.58V449.618C610.08 412.688 578.353 382.644 539.355 382.644H186.558Z" fill="#3F3D56"/>
<path d="M502.13 412.889C506.648 412.889 510.31 409.421 510.31 405.142C510.31 400.864 506.648 397.395 502.13 397.395C497.612 397.395 493.949 400.864 493.949 405.142C493.949 409.421 497.612 412.889 502.13 412.889Z" fill="#3F3D56"/>
<path d="M524.627 412.889C529.145 412.889 532.808 409.421 532.808 405.142C532.808 400.864 529.145 397.395 524.627 397.395C520.109 397.395 516.446 400.864 516.446 405.142C516.446 409.421 520.109 412.889 524.627 412.889Z" fill="#3F3D56"/>
<path d="M547.123 412.889C551.641 412.889 555.304 409.421 555.304 405.142C555.304 400.864 551.641 397.395 547.123 397.395C542.605 397.395 538.942 400.864 538.942 405.142C538.942 409.421 542.605 412.889 547.123 412.889Z" fill="#3F3D56"/>
<path d="M174.994 728.762C172.452 728.762 170.385 730.72 170.385 733.127C170.385 734.301 170.863 735.386 171.732 736.187C172.608 737.037 173.756 737.492 174.994 737.492H543.966C546.507 737.492 548.575 735.534 548.575 733.127C548.575 731.953 548.096 730.868 547.227 730.067C546.351 729.217 545.204 728.762 543.966 728.762H174.994Z" fill="#E6E6E6"/>
<path d="M372.284 727.308V738.947H174.993C173.303 738.947 171.767 738.306 170.661 737.23C169.524 736.182 168.848 734.727 168.848 733.127C168.848 729.926 171.613 727.308 174.993 727.308H372.284V727.308Z" fill="#FFE0B2"/>
<path d="M536.284 705.484H474.83C468.053 705.484 462.539 700.264 462.539 693.845C462.539 687.426 468.053 682.206 474.83 682.206H536.284C543.061 682.206 548.574 687.426 548.574 693.845C548.574 700.264 543.061 705.484 536.284 705.484Z" fill="#E6E6E6"/>
<path d="M305.411 713.803L262.451 577.111L259.163 578.038L301.972 714.248" fill="#2F2E41"/>
<path d="M306.897 402.718C346.106 399.974 374.92 359.672 371.254 312.7C367.588 265.728 332.832 229.875 293.623 232.619C254.414 235.363 225.6 275.665 229.266 322.637C232.932 369.608 267.688 405.462 306.897 402.718Z" fill="#FFE0B2"/>
<path d="M305.406 402.719H301.976V726.688H305.406V402.719Z" fill="#2F2E41"/>
<path d="M264.382 573.151L268.234 584.043L276.685 592.75L254.445 597.864L260.898 586.498L256.716 576.793L264.382 573.151Z" fill="#FFE0B2"/>
<path d="M306.26 395.877L306.672 407.357L312.15 417.984L289.294 416.88L298.901 407.729L297.815 397.298L306.26 395.877Z" fill="#FFE0B2"/>
<path d="M265.538 576.007C302.258 562.704 317.621 516.259 299.85 472.268C282.08 428.277 237.906 403.399 201.185 416.701C164.464 430.004 149.102 476.449 166.873 520.44C184.643 564.431 228.817 589.309 265.538 576.007Z" fill="#FFE0B2"/>
<path d="M577.236 364.391C588.808 367.699 596.384 376.035 594.16 383.008C591.935 389.982 580.753 392.951 569.178 389.64C564.535 388.377 560.279 386.08 556.766 382.941L507.925 368.337L514.072 350.062L562.979 363.464C567.741 362.69 572.63 363.008 577.236 364.391Z" fill="#FFB6B6"/>
<path d="M492.381 244.57L543.842 208.833L542.127 277.058L494.097 335.537L545.557 355.03L543.842 382.862C543.842 382.862 478.658 368.025 468.366 366.401C458.074 364.776 449.497 342.035 449.497 342.035L492.381 244.57Z" fill="#E6E6E6"/>
</g>
<defs>
<clipPath id="clip0_741_5048">
<rect width="900" height="845" fill="white"/>
</clipPath>
</defs>
</svg>
