<svg width="32" height="33" viewBox="0 0 32 33" fill="none" xmlns="http://www.w3.org/2000/svg">
<path d="M26 11.5H6C5.44772 11.5 5 11.9477 5 12.5V26.5C5 27.0523 5.44772 27.5 6 27.5H26C26.5523 27.5 27 27.0523 27 26.5V12.5C27 11.9477 26.5523 11.5 26 11.5Z" stroke="#0A0A0A" stroke-linecap="round" stroke-linejoin="round"/>
<path d="M11.5 11.5V7C11.5 5.80653 11.9741 4.66193 12.818 3.81802C13.6619 2.97411 14.8065 2.5 16 2.5C17.1935 2.5 18.3381 2.97411 19.182 3.81802C20.0259 4.66193 20.5 5.80653 20.5 7V11.5" stroke="#0A0A0A" stroke-linecap="round" stroke-linejoin="round"/>
</svg>
