<svg width="32" height="33" viewBox="0 0 32 33" fill="none" xmlns="http://www.w3.org/2000/svg">
<path d="M10.2953 14.0333H7.18241C6.91807 14.0333 6.7041 14.2473 6.7041 14.5116V17.6245C6.7041 17.8885 6.91807 18.1028 7.18241 18.1028H10.2953C10.5596 18.1028 10.7736 17.8885 10.7736 17.6245V14.5116C10.7736 14.2476 10.5596 14.0333 10.2953 14.0333ZM9.81695 17.1462H7.66073V14.9899H9.81695V17.1462Z" fill="#424242"/>
<path d="M17.555 14.0333H14.4422C14.1778 14.0333 13.9639 14.2473 13.9639 14.5116V17.6245C13.9639 17.8885 14.1778 18.1028 14.4422 18.1028H17.555C17.8191 18.1028 18.0333 17.8885 18.0333 17.6245V14.5116C18.0333 14.2476 17.8191 14.0333 17.555 14.0333ZM17.0767 17.1462H14.9205V14.9899H17.0767V17.1462Z" fill="#424242"/>
<path d="M24.5917 14.0333H21.4788C21.2148 14.0333 21.0005 14.2473 21.0005 14.5116V17.6245C21.0005 17.8885 21.2148 18.1028 21.4788 18.1028H24.5917C24.8557 18.1028 25.07 17.8885 25.07 17.6245V14.5116C25.07 14.2476 24.8557 14.0333 24.5917 14.0333ZM24.1133 17.1462H21.9571V14.9899H24.1133V17.1462Z" fill="#424242"/>
<path d="M10.2953 21.1238H7.18241C6.91807 21.1238 6.7041 21.3381 6.7041 21.6022V24.715C6.7041 24.979 6.91807 25.1933 7.18241 25.1933H10.2953C10.5596 25.1933 10.7736 24.979 10.7736 24.715V21.6022C10.7736 21.3381 10.5596 21.1238 10.2953 21.1238ZM9.81695 24.2367H7.66073V22.0805H9.81695V24.2367Z" fill="#424242"/>
<path d="M17.555 21.1238H14.4422C14.1778 21.1238 13.9639 21.3381 13.9639 21.6022V24.715C13.9639 24.979 14.1778 25.1933 14.4422 25.1933H17.555C17.8191 25.1933 18.0333 24.979 18.0333 24.715V21.6022C18.0333 21.3381 17.8191 21.1238 17.555 21.1238ZM17.0767 24.2367H14.9205V22.0805H17.0767V24.2367Z" fill="#424242"/>
<path d="M24.5917 21.1238H21.4788C21.2148 21.1238 21.0005 21.3381 21.0005 21.6022V24.715C21.0005 24.979 21.2148 25.1933 21.4788 25.1933H24.5917C24.8557 25.1933 25.07 24.979 25.07 24.715V21.6022C25.07 21.3381 24.8557 21.1238 24.5917 21.1238ZM24.1133 24.2367H21.9571V22.0805H24.1133V24.2367Z" fill="#424242"/>
<path d="M28.3797 4.77101H25.2206C25.2165 4.77101 25.213 4.77196 25.2088 4.77228V4.13517C25.2088 3.09309 24.3612 2.24552 23.3192 2.24552C22.2771 2.24552 21.4295 3.09341 21.4295 4.13517V4.77101H17.8699V4.13517C17.8699 3.09309 17.0224 2.24552 15.9803 2.24552C14.9382 2.24552 14.0906 3.09341 14.0906 4.13517V4.77101H10.5307V4.13517C10.5307 3.09309 9.68314 2.24552 8.64106 2.24552C7.59898 2.24552 6.75141 3.09341 6.75141 4.13517V4.77133C6.74981 4.77133 6.74822 4.77101 6.74663 4.77101H3.58817C3.32383 4.77101 3.10986 4.98497 3.10986 5.24932V30.0405C3.10986 30.3046 3.32383 30.5188 3.58817 30.5188H28.3797C28.6437 30.5188 28.858 30.3046 28.858 30.0405V5.24932C28.858 4.98497 28.6437 4.77101 28.3797 4.77101ZM22.3861 4.13517C22.3861 3.62051 22.8045 3.20214 23.3192 3.20214C23.8338 3.20214 24.2522 3.62051 24.2522 4.13517V6.77449C24.2522 7.28884 23.8338 7.70752 23.3192 7.70752C22.8045 7.70752 22.3861 7.28916 22.3861 6.77449V4.13517ZM15.9803 3.20214C16.4946 3.20214 16.9133 3.62051 16.9133 4.13517V6.77449C16.9133 7.28884 16.4949 7.70752 15.9803 7.70752C15.4656 7.70752 15.0472 7.28916 15.0472 6.77449V5.29396C15.0485 5.27897 15.0517 5.26462 15.0517 5.249C15.0517 5.23337 15.0485 5.21903 15.0472 5.20404V4.13517C15.0472 3.62051 15.4656 3.20214 15.9803 3.20214ZM7.70803 4.13517C7.70803 3.62051 8.12639 3.20214 8.64106 3.20214C9.1554 3.20214 9.57408 3.62051 9.57408 4.13517V6.77449C9.57408 7.28884 9.15572 7.70752 8.64106 7.70752C8.12639 7.70752 7.70803 7.28916 7.70803 6.77449V4.13517ZM27.9014 29.5622H4.06649V5.72763H6.74663C6.74822 5.72763 6.74981 5.72731 6.75141 5.72731V6.77481C6.75141 7.81689 7.5993 8.66446 8.64106 8.66446C9.68282 8.66446 10.5307 7.81689 10.5307 6.77481V5.72795H14.0906V6.77481C14.0906 7.81689 14.9385 8.66446 15.9803 8.66446C17.022 8.66446 17.8699 7.81689 17.8699 6.77481V5.72795H21.4295V6.77481C21.4295 7.81689 22.2771 8.66446 23.3192 8.66446C24.3612 8.66446 25.2088 7.81689 25.2088 6.77481V5.72635C25.213 5.72635 25.2165 5.72763 25.2206 5.72763H27.9014V29.5622Z" fill="#424242"/>
</svg>
