<svg width="535" height="273" viewBox="0 0 535 273" fill="none" xmlns="http://www.w3.org/2000/svg">
<g clip-path="url(#clip0_1038_5617)">
<path d="M511.253 150.929L509.577 164.252L505.417 197.342H421.858C422.511 189.926 423.403 179.25 424.356 167.726C424.45 166.575 424.548 165.417 424.642 164.252C427.032 135.284 429.647 102.503 429.647 102.503L440.632 104.546L461.945 108.502L470.63 110.114L493.887 114.437C505.483 116.588 513.459 133.349 511.253 150.93V150.929Z" fill="white"/>
<path d="M448.048 48.8969L458.324 66.848L438.574 80.8207L430.149 58.7555L448.048 48.8969Z" fill="#FFB6B6"/>
<path d="M434.967 65.8794C449.026 65.8794 460.423 54.5017 460.423 40.4665C460.423 26.4314 449.026 15.0536 434.967 15.0536C420.908 15.0536 409.511 26.4314 409.511 40.4665C409.511 54.5017 420.908 65.8794 434.967 65.8794Z" fill="#FFB6B6"/>
<path d="M433.139 46.1478C431.118 43.0767 431.911 41.4704 430.219 40.3418C430.219 40.3418 429.538 39.8876 424.664 39.6287C423.573 31.7888 422.211 30.838 422.211 30.838C420.641 29.7423 418.312 30.0983 416.862 30.7685C413.797 32.1859 414.152 35.2476 412.088 35.8335C409.237 36.6429 404.05 32.0802 403.539 26.8568C403.122 22.5959 405.872 18.4576 406.962 18.6765C408.044 18.8936 410.633 15.5939 412.031 15.6448C412.985 15.6795 416.886 13.987 417.935 14.1193C419.081 14.2639 422.86 16.2323 423.017 15.7826C424.111 12.6574 423.79 11.7903 424.718 10.8963C426.363 9.31201 429.055 10.4152 433.276 11.0075C441.963 12.2261 443.479 9.3667 447.931 11.3048C450.18 12.2839 452.062 14.9243 455.733 20.1651C460.868 27.4943 463.435 31.1589 463.452 35.4331C463.469 39.7921 461.354 39.5154 460.425 45.9684C459.392 53.1518 461.588 56.4364 459.188 58.7701C457.334 60.5738 453.564 61.0019 451.583 59.419C448.192 56.7088 452.63 50.169 448.877 45.3911C446.574 42.4582 441.941 41.1532 439.819 42.6029C437.42 44.2422 438.741 49.0537 437.054 49.5099C435.609 49.9007 433.491 46.6829 433.139 46.1478L433.139 46.1478Z" fill="#2F2E41"/>
<path d="M492.438 146.238C491.728 158.357 488.908 162.184 487.92 176.497C487.704 179.64 487.574 183.287 487.574 187.637C487.574 188.746 487.58 189.819 487.58 190.866C487.58 193.096 487.538 195.204 487.278 197.342C487.081 199.049 486.741 200.768 486.18 202.579H431.353C431.347 202.567 431.347 202.555 431.341 202.542C431.02 201.15 430.816 199.819 430.662 198.543C430.613 198.137 430.569 197.736 430.532 197.342C430.483 196.88 430.44 196.424 430.397 195.974C430.23 194.181 430.063 192.487 429.668 190.866C429.138 188.629 428.174 186.522 426.199 184.489C425.391 183.657 424.583 183.01 423.793 182.443C423.638 182.338 423.49 182.234 423.336 182.129C421.151 180.632 419.083 179.553 417.293 176.497C417.262 176.454 417.238 176.405 417.213 176.362C416.904 175.826 416.102 174.421 415.522 172.548C414.911 170.601 414.54 168.154 415.207 165.653C416.793 159.725 422.669 159.134 427.471 153.145C427.989 152.498 428.502 151.783 428.989 150.988C431.162 147.464 431.748 144.358 432.439 140.668C432.55 140.07 432.649 139.478 432.729 138.905C432.791 138.474 432.847 138.049 432.89 137.63C433.272 134.112 433.087 131.08 432.637 128.369C431.168 119.49 426.835 113.994 429.896 106.027C430.86 103.526 432.224 101.646 433.6 100.038C436.513 96.6306 439.507 94.4186 438.988 90.0195C438.463 85.583 435.093 84.9729 434.717 81.0972C434.526 79.138 435.167 77.0738 436.371 75.0466V75.0406C440.223 68.5153 449.839 62.5078 455.949 62.6988C457.078 62.7298 458.078 62.9822 458.911 63.469C461.93 65.2435 460.671 69.1191 465.294 74.5538C468.731 78.5896 472.619 80.204 474.095 80.9678C479.94 84.0119 484.692 92.9893 487.92 104.468C487.945 104.555 487.969 104.641 487.994 104.733C489.988 111.924 491.395 120.088 492.093 128.369C492.389 131.875 492.562 135.4 492.598 138.887C492.63 141.672 492.568 144.087 492.438 146.238Z" fill="#FFE0B2"/>
<path d="M451.381 187.761L450.263 190.866L449.56 192.813L447.93 197.342L446.042 202.579H433.901L435.938 197.342L436.883 194.902L438.45 190.866L441.079 184.088L451.381 187.761Z" fill="#FFB6B6"/>
<path d="M488.111 103.408C488.08 103.809 488.037 104.253 487.993 104.733C487.512 109.626 486.376 118.381 484.716 128.369C483.84 133.637 482.815 139.251 481.661 144.827C479.18 156.86 476.094 168.709 472.606 176.497C471.983 177.902 471.341 179.171 470.687 180.293C470.187 181.149 469.662 181.993 469.113 182.825C467.335 185.555 465.342 188.143 463.274 190.558C463.194 190.663 463.101 190.761 463.009 190.866C462.676 191.26 462.33 191.649 461.984 192.037C460.293 193.941 458.565 195.715 456.892 197.342C454.856 199.326 452.893 201.082 451.134 202.579H431.42L431.34 202.542L428.501 201.285C428.501 201.285 429.309 200.336 430.661 198.543C430.939 198.18 431.235 197.779 431.556 197.342C431.951 196.806 432.377 196.214 432.833 195.573C433.784 194.23 434.864 192.653 436.024 190.866C438.271 187.409 440.832 183.158 443.419 178.235C443.715 177.662 444.017 177.083 444.32 176.497C444.326 176.479 444.339 176.46 444.345 176.442C444.857 175.444 445.363 174.415 445.869 173.367C450.159 164.457 451.387 157.063 451.739 154.667C452.233 151.278 452.917 146.539 452.732 141.327C452.609 137.889 452.109 134.253 450.918 130.643V130.637C450.671 129.879 450.393 129.121 450.078 128.369C449.517 127.02 448.85 125.689 448.06 124.376C444.573 118.597 441.74 118.356 439.487 112.059C438.82 110.192 437.308 105.978 437.771 101.529V101.523C437.827 100.975 437.919 100.42 438.043 99.8654V99.8594C438.074 99.7053 438.117 99.5453 438.16 99.3912C438.512 98.0295 439.092 96.6799 439.975 95.3982C441.697 92.9092 444.048 91.4302 446.153 90.5493L446.159 90.543C448.591 89.5327 450.69 89.317 451.097 89.28C460.114 88.4791 467.107 96.0454 470.928 100.18C472.403 101.776 473.755 103.113 474.989 104.203C484.599 112.768 487.234 107.296 487.919 104.468C488.024 104.031 488.08 103.655 488.111 103.408V103.408Z" fill="#FFE0B2"/>
<path d="M488.141 103.088C488.141 103.119 488.135 103.224 488.11 103.396C488.122 103.304 488.129 103.211 488.135 103.125C488.135 103.107 488.135 103.094 488.141 103.088Z" fill="#FFE0B2"/>
<path d="M439.123 233.104H108.27C105.197 233.104 102.691 235.599 102.691 238.668C102.691 241.742 105.197 244.238 108.27 244.238H439.123C442.197 244.238 444.697 241.742 444.697 238.668C444.697 235.599 442.197 233.104 439.123 233.104Z" fill="#C2C2C2"/>
<path d="M365.7 261.866H181.687C178.613 261.866 176.113 264.361 176.113 267.43C176.113 270.498 178.613 273 181.687 273H365.7C368.774 273 371.28 270.498 371.28 267.43C371.28 264.361 368.774 261.866 365.7 261.866Z" fill="#C2C2C2"/>
<path d="M145.086 50.0782L165.937 41.3178L174.881 59.6211L152.969 68.5495L145.086 50.0782Z" fill="#FFB6B6"/>
<path opacity="0.1" d="M145.086 50.0782L165.937 41.3178L174.881 59.6211L152.969 68.5495L145.086 50.0782Z" fill="black"/>
<path d="M148.05 43.1035L168.621 66.7638C168.621 66.7638 154.311 111.852 140.001 115.87C125.691 119.888 99.3076 139.53 99.3076 139.53L66.2163 118.102L82.3148 94.4419C82.3148 94.4419 121.219 41.3178 131.505 41.3178C141.79 41.3178 148.05 43.1035 148.05 43.1035V43.1035Z" fill="#FFE0B2"/>
<path d="M120.258 197.342H72.3742L69.3468 193.302L56.9868 176.807L54.1427 173.012C54.1427 173.012 43.4104 153.37 45.6463 135.513C47.8822 117.656 71.1355 113.638 71.1355 113.638H72.0925L100.56 138.611L98.8607 161.852L107.876 176.807L120.258 197.342Z" fill="#2F2E41"/>
<path d="M82.1807 197.342H69.3467V178.369L82.1807 197.342Z" fill="#2F2E41"/>
<path d="M358.994 168.539L357.397 176.807L353.435 197.342H273.842C274.463 192.739 275.313 186.115 276.221 178.963C276.31 178.249 276.404 177.53 276.494 176.807C278.77 158.829 281.26 138.486 281.26 138.486L291.725 139.754L312.026 142.209L320.299 143.209L342.453 145.892C353.498 147.227 361.095 157.628 358.994 168.539H358.994Z" fill="white"/>
<path d="M471.635 197.342H428.464C429.121 196.57 429.492 196.123 429.492 196.123L442.434 193.989L469.099 189.597C469.099 189.597 470.315 192.735 471.635 197.342V197.342Z" fill="#2F2E41"/>
<path d="M288.516 59.0072L307.29 85.5131L274.542 86.4895L271.026 61.5801L288.516 59.0072Z" fill="#A0616A"/>
<path opacity="0.1" d="M288.516 59.0072L307.29 85.5131L274.542 86.4895L271.026 61.5801L288.516 59.0072Z" fill="black"/>
<path d="M195.93 113.926C193.521 106.988 187.983 102.606 183.56 104.137C179.138 105.668 177.507 112.532 179.918 119.472C180.843 122.257 182.422 124.781 184.525 126.832L195.103 156.097L208.754 150.848L196.876 122.555C197.256 119.644 196.931 116.685 195.93 113.926Z" fill="#A0616A"/>
<path d="M323.013 100.42L322.987 127.432L320.47 137.41L315.291 157.932L311.522 176.807L308.713 190.869L307.712 195.891C306.956 196.396 306.205 196.878 305.453 197.342H240.044C236.328 195.114 234.249 193.382 234.249 193.382C234.249 193.382 235.278 192.418 236.454 190.869C238.439 188.253 240.84 183.967 239.369 179.874C239.061 179.016 238.98 177.972 239.074 176.807C239.673 169.119 247.749 156.119 247.749 156.119L246.077 136.825L245.344 128.37L250.514 87.1427L267.369 77.3616L270.278 77.0806L299.001 75.5315L310.872 76.2145L311.413 76.3619L323.013 100.42V100.42Z" fill="white"/>
<path d="M324.288 197.342H309.978L309.347 190.869L309.334 190.739L313.385 190.463L323.926 189.744L324.109 193.619L324.252 196.592L324.288 197.342Z" fill="#FFB6B6"/>
<path d="M327.811 106.951L333.822 142.16L328.916 176.807L328.152 182.199L326.801 191.722L326.385 194.65L326.399 194.967L326.502 197.342H309.509L308.883 190.869L308.829 190.289L307.55 177.03L307.528 176.807L304.813 148.691L310.135 128.37L310.528 126.874V126.87L312.844 92.0759L311.05 76.2637L311.033 76.1163C311.068 76.1386 311.1 76.161 311.135 76.1833C311.229 76.2413 311.323 76.2994 311.413 76.3619C321.859 82.9779 328.084 94.5848 327.811 106.951Z" fill="white"/>
<path d="M256.602 93.8895L250.067 87.1422C250.067 87.1422 236.079 93.4379 235.381 96.9306C234.684 100.423 209.985 151.723 209.985 151.723L199.24 123.072L185.253 132.395C185.253 132.395 196.476 176.877 206.972 178.965C217.468 181.053 252.647 126.317 252.647 126.317L256.602 93.8895H256.602Z" fill="white"/>
<path d="M521.934 176.497H13.0602C5.85743 176.497 0 182.351 0 189.541C0 196.732 5.85742 202.579 13.0602 202.579H521.934C529.137 202.579 535 196.732 535 189.541C535 182.35 529.137 176.497 521.934 176.497Z" fill="#C2C2C2"/>
<path d="M320.035 136.75L319.045 182.84C318.95 187.302 315.299 190.869 310.829 190.869H225.9C221.535 190.869 217.932 187.463 217.694 183.112L215.17 137.022C214.912 132.322 218.661 128.37 223.376 128.37H311.818C316.426 128.37 320.133 132.151 320.035 136.75Z" fill="#3F3D56"/>
<path d="M182.93 61.2039C194.152 61.2039 203.249 52.1219 203.249 40.9188C203.249 29.7157 194.152 20.6337 182.93 20.6337C171.708 20.6337 162.61 29.7157 162.61 40.9188C162.61 52.1219 171.708 61.2039 182.93 61.2039Z" fill="#FFB6B6"/>
<path d="M148.945 93.9955L151.181 118.102L166.385 179.262L153.25 183.858L131.058 117.209L127.993 90.4241L148.945 93.9955Z" fill="#FFB6B6"/>
<path d="M142.897 136.75L141.908 182.84C141.812 187.302 138.161 190.869 133.691 190.869H48.7621C44.3975 190.869 40.7942 187.463 40.556 183.112L38.032 137.022C37.7747 132.322 41.523 128.37 46.2381 128.37H134.68C139.288 128.37 142.996 132.151 142.897 136.75Z" fill="#3F3D56"/>
<path d="M168.806 191.18C177.669 191.18 184.853 188.008 184.853 184.095C184.853 180.181 177.669 177.009 168.806 177.009C159.943 177.009 152.759 180.181 152.759 184.095C152.759 188.008 159.943 191.18 168.806 191.18Z" fill="#FFB6B6"/>
<path d="M117.418 97.6811L126.586 48.9069C126.586 48.9069 152.075 45.3356 152.969 53.8176C153.864 62.2996 152.33 103.752 152.33 103.752L117.418 97.6811V97.6811Z" fill="#FFE0B2"/>
<path d="M174.728 44.1083C174.728 44.1083 187.297 39.6299 192.599 37.2202C197.902 34.8106 208.435 51.6176 208.67 42.7413C208.904 33.8649 205.264 30.1426 205.264 30.1426C205.264 30.1426 204.355 10.7243 184.758 13.152C184.758 13.152 189.069 3.43684 174.92 1.93457C160.771 0.432292 138.758 34.5423 140.729 39.6398C142.701 44.7374 145.064 48.9518 139.471 54.4022C133.878 59.8526 123.405 90.6133 131.373 98.8908C139.342 107.168 139.864 110.76 134.405 115.91C128.945 121.06 116.04 132.257 129.994 134.201C143.947 136.145 128.717 134.693 139.119 125.558C149.522 116.424 164.701 116.797 159.033 102.141C153.366 87.4859 163.212 66.4847 161.98 63.2987C160.748 60.1128 164.741 39.8817 164.741 39.8817C164.741 39.8817 174.033 38.5188 174.728 44.1083V44.1083Z" fill="#2F2E41"/>
<path d="M278.478 68.601C290.694 68.601 300.597 58.7147 300.597 46.5193C300.597 34.3238 290.694 24.4375 278.478 24.4375C266.262 24.4375 256.358 34.3238 256.358 46.5193C256.358 58.7147 266.262 68.601 278.478 68.601Z" fill="#A0616A"/>
<path d="M280.243 16.8319C279.603 17.2049 278.746 16.6405 278.54 15.9296C278.335 15.2187 278.574 14.4639 278.811 13.7629L280.005 10.2341C280.851 7.73133 281.749 5.14115 283.583 3.23625C286.349 0.361102 290.747 -0.370322 294.705 0.159569C299.788 0.840055 304.803 3.58791 307.167 8.13184C309.531 12.6758 308.524 19.0162 304.254 21.8511C310.34 28.8158 312.462 36.5777 312.127 45.8145C311.792 55.0513 301.709 63.5522 295.134 70.0592C293.665 69.1705 292.33 65.0061 293.138 63.4932C293.945 61.9804 292.788 60.2277 293.788 58.8342C294.788 57.4406 295.625 59.6595 294.614 58.2739C293.976 57.3996 296.466 55.3881 295.518 54.8648C290.931 52.3337 289.405 46.6261 286.525 42.2554C283.05 36.9834 277.103 33.4132 270.809 32.8209C267.342 32.4947 263.68 33.0856 260.839 35.0949C257.997 37.1043 256.157 40.6949 256.816 44.1085C255.109 42.3786 254.26 39.8435 254.58 37.4366C254.901 35.0298 256.384 32.8041 258.484 31.5792C257.207 27.3638 258.301 22.5149 261.265 19.2529C264.228 15.9908 276.251 16.5464 280.578 17.4049L280.243 16.8319Z" fill="#2F2E41"/>
<path d="M280.915 32.9489C286.646 33.5665 290.783 38.5221 294.277 43.0986C296.291 45.7364 298.401 48.6494 298.35 51.9656C298.299 55.3184 296.054 58.1941 294.98 61.3715C293.226 66.5651 294.936 72.7442 299.111 76.3028C294.985 77.0844 290.525 73.9961 289.813 69.8644C288.984 65.0547 292.636 60.4125 292.204 55.5512C291.822 51.2683 288.442 47.9721 285.567 44.7698C282.693 41.5675 279.994 37.3181 281.316 33.226L280.915 32.9489Z" fill="#2F2E41"/>
<path d="M366.587 179.288C360.911 182.511 357.976 188.048 360.031 191.654C362.086 195.26 368.353 195.569 374.031 192.344C376.317 191.087 378.268 189.302 379.72 187.137L403.598 173.178L396.798 162.131L373.98 177.066C371.373 177.207 368.838 177.969 366.587 179.288Z" fill="#FFB6B6"/>
<path d="M447.433 76.9218C446.72 76.6395 440.459 74.2724 434.743 77.3976C428.177 80.9875 427.163 89.1825 426.807 92.0568C425.985 98.6965 428.406 100.185 428.917 106.907C429.873 119.483 432.394 105.136 428.368 110.876C426.975 112.863 412.742 143.655 404.893 149.686C389.627 161.416 379.934 169.677 379.934 169.677L391 181.678C391 181.678 408.488 177.026 423.944 167.007C439.799 156.73 447.727 151.591 453.86 141.538C454.388 140.672 467.026 119.248 460.239 95.5576C458.691 90.1539 455.854 80.2531 447.433 76.9218Z" fill="#FFE0B2"/>
<path d="M504.58 136.75L503.59 182.84C503.494 187.302 499.844 190.869 495.374 190.869H410.445C406.08 190.869 402.477 187.463 402.239 183.112L399.715 137.022C399.457 132.322 403.206 128.37 407.921 128.37H496.363C500.971 128.37 504.678 132.151 504.58 136.75Z" fill="#3F3D56"/>
</g>
<defs>
<clipPath id="clip0_1038_5617">
<rect width="535" height="273" fill="white"/>
</clipPath>
</defs>
</svg>
