<svg width="35" height="35" viewBox="0 0 35 35" fill="none" xmlns="http://www.w3.org/2000/svg">
<path d="M11.6667 15.6917H10.8209C9.66664 15.65 8.51612 15.8459 7.44074 16.2674C6.36536 16.6888 5.38807 17.3268 4.56951 18.1417L4.33618 18.4139V26.4639H8.30285V21.8945L8.83757 21.2917L9.08063 21.0097C10.3464 19.7094 11.9222 18.7525 13.6598 18.2292C12.7898 17.5672 12.1037 16.6937 11.6667 15.6917Z" fill="#424242"/>
<path d="M30.4694 18.1125C29.6509 17.2976 28.6736 16.6596 27.5982 16.2382C26.5228 15.8167 25.3723 15.6208 24.218 15.6625C23.864 15.6635 23.5103 15.683 23.1583 15.7208C22.7131 16.6609 22.0458 17.4784 21.2139 18.1028C23.0688 18.616 24.7492 19.6242 26.075 21.0194L26.318 21.2917L26.843 21.8944V26.4736H30.6736V18.3847L30.4694 18.1125Z" fill="#424242"/>
<path d="M10.7916 13.7958H11.093C10.953 12.5934 11.164 11.3762 11.7005 10.2911C12.237 9.20593 13.0762 8.29928 14.1166 7.68056C13.7395 7.10437 13.2191 6.63601 12.6066 6.32134C11.994 6.00667 11.3102 5.85648 10.6222 5.88548C9.93416 5.91447 9.26544 6.12166 8.68153 6.48675C8.09762 6.85184 7.61854 7.36232 7.29119 7.96819C6.96385 8.57407 6.79946 9.25457 6.81414 9.94307C6.82881 10.6316 7.02204 11.3044 7.3749 11.8958C7.72777 12.4872 8.22816 12.9768 8.8271 13.3167C9.42604 13.6566 10.103 13.8351 10.7916 13.8347V13.7958Z" fill="#424242"/>
<path d="M23.7513 13.0667C23.7631 13.2901 23.7631 13.5141 23.7513 13.7375C23.9379 13.7671 24.1263 13.7833 24.3152 13.7861H24.4999C25.1856 13.7496 25.85 13.5361 26.4287 13.1665C27.0073 12.7969 27.4804 12.2838 27.8018 11.6771C28.1233 11.0704 28.2822 10.3908 28.263 9.70448C28.2439 9.01815 28.0474 8.34847 27.6926 7.76064C27.3378 7.17281 26.8368 6.68686 26.2385 6.35011C25.6401 6.01336 24.9648 5.83727 24.2782 5.839C23.5916 5.84073 22.9171 6.02021 22.3205 6.35997C21.7239 6.69973 21.2254 7.18819 20.8735 7.77779C21.7535 8.35231 22.477 9.13628 22.9793 10.0594C23.4816 10.9825 23.7468 12.0158 23.7513 13.0667Z" fill="#424242"/>
<path d="M17.3737 17.4222C19.7738 17.4222 21.7195 15.4765 21.7195 13.0764C21.7195 10.6763 19.7738 8.73056 17.3737 8.73056C14.9735 8.73056 13.0278 10.6763 13.0278 13.0764C13.0278 15.4765 14.9735 17.4222 17.3737 17.4222Z" fill="#424242"/>
<path d="M17.6069 19.7361C16.3372 19.6848 15.0702 19.891 13.8823 20.3421C12.6944 20.7932 11.61 21.48 10.6943 22.3611L10.4513 22.6333V28.7875C10.4551 28.988 10.4983 29.1857 10.5786 29.3694C10.6588 29.5532 10.7745 29.7193 10.9189 29.8584C11.0634 29.9974 11.2338 30.1066 11.4205 30.1798C11.6071 30.2529 11.8064 30.2886 12.0069 30.2847H23.1777C23.3781 30.2886 23.5774 30.2529 23.7641 30.1798C23.9507 30.1066 24.1212 29.9974 24.2656 29.8584C24.4101 29.7193 24.5257 29.5532 24.606 29.3694C24.6862 29.1857 24.7294 28.988 24.7332 28.7875V22.6528L24.4999 22.3611C23.5902 21.4773 22.5096 20.7886 21.3243 20.3372C20.139 19.8858 18.874 19.6813 17.6069 19.7361Z" fill="#424242"/>
</svg>
