<svg width="12" height="19" viewBox="0 0 12 19" fill="none" xmlns="http://www.w3.org/2000/svg">
<path opacity="0.5" d="M0 0.891602C0 3.21021 1.33714 5.32273 3.42857 6.31887V18.9252H5.14286V12.914H6.85714V18.9252H8.57143V6.31028C10.6629 5.32273 12 3.21021 12 0.891602H10.2857C10.2857 2.03037 9.83418 3.12249 9.03046 3.92772C8.63249 4.32643 8.16004 4.64271 7.64007 4.85849C7.1201 5.07427 6.56281 5.18533 6 5.18533C4.86336 5.18533 3.77327 4.73295 2.96954 3.92772C2.16582 3.12249 1.71429 2.03037 1.71429 0.891602M6 0.891602C5.04857 0.891602 4.28571 1.65588 4.28571 2.60909C4.28571 3.5623 5.04857 4.32658 6 4.32658C6.95143 4.32658 7.71429 3.5623 7.71429 2.60909C7.71429 1.65588 6.95143 0.891602 6 0.891602Z" fill="#424242"/>
</svg>
