<svg width="15" height="23" viewBox="0 0 15 23" fill="none" xmlns="http://www.w3.org/2000/svg">
<path d="M0 0C0 2.89286 1.67143 5.52857 4.28571 6.77143V22.5H6.42857V15H8.57143V22.5H10.7143V6.76071C13.3286 5.52857 15 2.89286 15 0H12.8571C12.8571 1.4208 12.2927 2.78341 11.2881 3.78807C10.7906 4.28553 10.2 4.68013 9.55009 4.94936C8.90013 5.21858 8.20351 5.35714 7.5 5.35714C6.0792 5.35714 4.71659 4.79273 3.71193 3.78807C2.70727 2.78341 2.14286 1.4208 2.14286 0M7.5 0C6.31071 0 5.35714 0.953571 5.35714 2.14286C5.35714 3.33214 6.31071 4.28571 7.5 4.28571C8.68929 4.28571 9.64286 3.33214 9.64286 2.14286C9.64286 0.953571 8.68929 0 7.5 0Z" fill="#F8F8F8"/>
</svg>
