<svg width="32" height="33" viewBox="0 0 32 33" fill="none" xmlns="http://www.w3.org/2000/svg">
<g clip-path="url(#clip0_2210_4641)">
<path d="M16.4755 11.3455C16.4086 11.1395 16.2166 11 16 11C15.7834 11 15.5914 11.1395 15.5245 11.3455L13.1671 18.6008H5.53838C5.32177 18.6008 5.12979 18.7403 5.06285 18.9463C4.99591 19.1523 5.06924 19.378 5.24449 19.5053L11.4162 23.9894L9.05883 31.2447C8.9919 31.4507 9.06523 31.6764 9.24047 31.8037C9.41571 31.931 9.65301 31.931 9.82826 31.8037L16 27.3197L22.1717 31.8037C22.347 31.931 22.5843 31.931 22.7595 31.8037C22.9348 31.6764 23.0081 31.4507 22.9412 31.2447L20.5838 23.9894L26.7555 19.5053C26.9308 19.378 27.0041 19.1523 26.9371 18.9463C26.8702 18.7403 26.6782 18.6008 26.4616 18.6008H18.8329L16.4755 11.3455Z" stroke="#424242" stroke-linejoin="round"/>
<path d="M22 18.5L26 1.5H6L10 18.5" stroke="#424242" stroke-linecap="round" stroke-linejoin="round"/>
<path d="M16 1.5V11" stroke="#424242" stroke-linecap="round" stroke-linejoin="round"/>
</g>
<defs>
<clipPath id="clip0_2210_4641">
<rect width="32" height="32" fill="white" transform="translate(0 0.5)"/>
</clipPath>
</defs>
</svg>
