<svg width="32" height="33" viewBox="0 0 32 33" fill="none" xmlns="http://www.w3.org/2000/svg">
<path d="M4.73795 26.4875L11.4629 7.97497C11.5205 7.81656 11.6172 7.67526 11.744 7.56422C11.8708 7.45318 12.0236 7.37599 12.1882 7.33982C12.3528 7.30365 12.5239 7.30968 12.6856 7.35735C12.8473 7.40502 12.9943 7.49277 13.1129 7.61247L24.8879 19.3875C25.0076 19.5061 25.0954 19.6531 25.1431 19.8148C25.1907 19.9765 25.1968 20.1476 25.1606 20.3122C25.1244 20.4768 25.0472 20.6296 24.9362 20.7564C24.8251 20.8832 24.6839 20.9799 24.5254 21.0375L6.01294 27.7625C5.83484 27.8305 5.64084 27.8456 5.45436 27.8058C5.26788 27.7661 5.09691 27.6732 4.96208 27.5383C4.82726 27.4035 4.73435 27.2325 4.69458 27.0461C4.6548 26.8596 4.66986 26.6656 4.73795 26.4875V26.4875Z" stroke="#424242" stroke-linecap="round" stroke-linejoin="round"/>
<path d="M21 9.5C21 9.5 21 6.5 24 6.5C27 6.5 27 3.5 27 3.5" stroke="#424242" stroke-linecap="round" stroke-linejoin="round"/>
<path d="M12.8002 25.3L7.2002 19.7" stroke="#424242" stroke-linecap="round" stroke-linejoin="round"/>
<path d="M18 2.5V5.5" stroke="#424242" stroke-linecap="round" stroke-linejoin="round"/>
<path d="M27 14.5L29 16.5" stroke="#424242" stroke-linecap="round" stroke-linejoin="round"/>
<path d="M27 10.5L30 9.5" stroke="#424242" stroke-linecap="round" stroke-linejoin="round"/>
<path d="M9.59961 13.1L19.3996 22.9" stroke="#424242" stroke-linecap="round" stroke-linejoin="round"/>
</svg>
