<svg width="32" height="33" viewBox="0 0 32 33" fill="none" xmlns="http://www.w3.org/2000/svg">
<path d="M16 20.5C18.7614 20.5 21 18.2614 21 15.5C21 12.7386 18.7614 10.5 16 10.5C13.2386 10.5 11 12.7386 11 15.5C11 18.2614 13.2386 20.5 16 20.5Z" stroke="#0A0A0A" stroke-linecap="round" stroke-linejoin="round"/>
<path d="M26 5.5H6C5.44772 5.5 5 5.94772 5 6.5V26.5C5 27.0523 5.44772 27.5 6 27.5H26C26.5523 27.5 27 27.0523 27 26.5V6.5C27 5.94772 26.5523 5.5 26 5.5Z" stroke="#0A0A0A" stroke-linecap="round" stroke-linejoin="round"/>
<path d="M7.22461 27.5C7.67777 25.5116 8.79281 23.7361 10.3871 22.4643C11.9813 21.1925 13.9602 20.4999 15.9996 20.4999C18.039 20.4999 20.0179 21.1925 21.6122 22.4643C23.2064 23.7361 24.3214 25.5116 24.7746 27.5" stroke="#0A0A0A" stroke-linecap="round" stroke-linejoin="round"/>
</svg>
