<svg width="900" height="848" viewBox="0 0 900 848" fill="none" xmlns="http://www.w3.org/2000/svg">
<g clip-path="url(#clip0_741_4718)">
<path d="M900 846.06C900 847.136 899.091 848 897.959 848H2.04128C0.909194 848 0 847.136 0 846.06C0 844.984 0.909194 844.12 2.04128 844.12H897.959C899.091 844.12 900 844.984 900 846.06Z" fill="#3F3D56"/>
<path d="M621.891 751.609L632.183 792.364L601.307 800.515L594.445 756.5L621.891 751.609Z" fill="#FFB6B6"/>
<path d="M671.637 619.565L639.045 645.648L618.461 676.621L647.622 694.553L697.368 640.757L671.637 619.565Z" fill="#FFB6B6"/>
<path d="M661.345 350.585L688.791 438.615C688.791 438.615 810.581 539.686 798.574 560.878C786.566 582.07 705.944 640.757 705.944 640.757C705.944 640.757 711.928 659.523 694.355 651.77C676.783 644.017 657.914 622.825 657.914 622.825C657.914 622.825 657.914 606.523 666.491 609.784C675.068 613.044 714.521 569.029 714.521 569.029L628.753 494.041V744.787C628.753 744.787 649.337 761.891 628.753 763.271C608.168 764.651 589.299 767.911 589.299 767.911C589.299 767.911 565.284 759.76 573.861 751.609L548.131 617.934L529.262 454.916L542.985 370.147L661.345 350.585Z" fill="#2F2E41"/>
<path d="M606.453 787.473C606.453 787.473 608.169 780.953 615.03 780.953H635.986C635.986 780.953 642.476 808.666 640.761 808.666C639.045 808.666 668.207 844.53 637.33 846.16C606.453 847.79 597.877 844.53 597.877 844.53L594.446 831.662C594.446 831.662 589.3 823.337 591.015 816.817C592.73 810.296 606.453 787.473 606.453 787.473Z" fill="#2F2E41"/>
<path d="M649.338 681.512C649.338 681.512 669.039 681.216 664.335 686.255C659.63 691.293 651.053 699.444 651.053 699.444C651.053 699.444 630.65 738.568 621.125 731.232C611.599 723.896 596.161 642.387 601.307 632.606C606.453 622.825 613.315 622.825 613.315 622.825L644.962 640.913C644.962 640.913 625.322 686.402 649.338 681.512Z" fill="#2F2E41"/>
<path d="M601.307 212.019L608.168 171.265L561.854 153.333L554.992 215.28L601.307 212.019Z" fill="#FFB6B6"/>
<path opacity="0.1" d="M601.307 212.019L608.168 171.265L561.854 153.333L554.992 215.28L601.307 212.019Z" fill="#0A0A0A"/>
<path d="M552.42 206.314L607.311 193.272L665.634 211.204C665.634 211.204 691.364 279.672 682.787 304.125C674.21 328.577 674.21 376.34 674.21 376.34C674.21 376.34 673.353 355.475 623.607 370.147C573.862 384.819 537.839 383.188 537.839 383.188L536.124 324.502L514.575 272.374C505.364 250.093 515.292 224.796 537.605 213.688L552.42 206.314Z" fill="#E6E6E6"/>
<path d="M804.396 398.353C812.142 407.172 813.632 418.118 807.726 422.801C801.82 427.485 790.755 424.132 783.008 415.31C779.863 411.826 777.641 407.676 776.529 403.209L744.207 365.451L759.951 353.342L793.025 390.127C797.452 391.967 801.351 394.787 804.396 398.353V398.353Z" fill="#FFB6B6"/>
<path d="M663.141 211.725L651.892 254.071L706.95 337.828L763.156 391.511L781.373 377.148L724.688 310.121L681.722 223.758L663.141 211.725Z" fill="#E6E6E6"/>
<path d="M794.21 170.852C833.418 168.098 862.232 127.652 858.566 80.5139C854.901 33.3754 820.144 -2.60557 780.935 0.14808C741.726 2.90173 712.913 43.3473 716.578 90.4858C720.244 137.624 755.001 173.605 794.21 170.852Z" fill="#FFE0B2"/>
<path d="M792.719 170.852H789.288V495.972H792.719V170.852Z" fill="#2F2E41"/>
<path d="M793.573 163.986L793.984 175.507L799.463 186.172L776.606 185.064L786.214 175.88L785.128 165.412L793.573 163.986Z" fill="#FFE0B2"/>
<path d="M589.603 184.366C615.688 184.366 636.833 164.27 636.833 139.481C636.833 114.692 615.688 94.5966 589.603 94.5966C563.519 94.5966 542.373 114.692 542.373 139.481C542.373 164.27 563.519 184.366 589.603 184.366Z" fill="#FFB6B6"/>
<path d="M585.833 79.137C587.2 79.8952 589.031 78.7481 589.469 77.303C589.907 75.858 589.397 74.3237 588.89 72.8989L586.342 65.7259C584.535 60.6387 582.617 55.3738 578.702 51.5017C572.795 45.6576 563.406 44.1708 554.954 45.2479C544.1 46.6311 533.391 52.2165 528.344 61.4528C523.297 70.6891 525.446 83.577 534.565 89.3395C521.568 103.496 517.037 119.274 517.753 138.049C518.468 156.824 539.998 174.103 554.038 187.33C557.173 185.524 560.024 177.059 558.3 173.984C556.575 170.908 559.046 167.346 556.91 164.513C554.775 161.681 552.989 166.191 555.147 163.375C556.51 161.597 551.193 157.509 553.218 156.445C563.012 151.3 566.269 139.698 572.42 130.814C579.84 120.098 592.539 112.841 605.977 111.637C613.38 110.974 621.199 112.175 627.267 116.26C633.334 120.344 637.263 127.642 635.856 134.581C639.5 131.065 641.313 125.912 640.629 121.019C639.945 116.127 636.778 111.603 632.294 109.113C635.02 100.545 632.685 90.6887 626.357 84.0581C620.028 77.4275 594.358 78.5568 585.119 80.3019" fill="#2F2E41"/>
<path d="M584.398 111.897C572.162 113.153 563.327 123.226 555.867 132.528C551.567 137.89 547.062 143.811 547.17 150.552C547.28 157.367 552.074 163.212 554.366 169.671C558.111 180.228 554.461 192.788 545.545 200.021C554.355 201.61 563.878 195.332 565.399 186.934C567.17 177.157 559.371 167.722 560.295 157.84C561.109 149.135 568.327 142.435 574.465 135.925C580.602 129.416 586.366 120.779 583.542 112.461" fill="#2F2E41"/>
<path d="M539.356 382.372H186.559C146.552 382.372 114.119 413.194 114.119 451.214V776.326C114.119 814.347 146.551 845.168 186.559 845.168H539.356C579.363 845.168 611.795 814.347 611.795 776.326V451.214C611.795 413.194 579.363 382.372 539.356 382.372V382.372Z" fill="white"/>
<path d="M539.355 846.798H186.558C145.669 846.798 112.403 815.184 112.403 776.326V451.215C112.403 412.356 145.669 380.742 186.558 380.742H539.355C580.244 380.742 613.511 412.356 613.511 451.215V776.326C613.511 815.184 580.244 846.798 539.355 846.798ZM186.558 384.002C147.561 384.002 115.834 414.154 115.834 451.215V776.326C115.834 813.387 147.561 843.538 186.558 843.538H539.355C578.353 843.538 610.08 813.387 610.08 776.326V451.215C610.08 414.154 578.353 384.002 539.355 384.002H186.558Z" fill="#3F3D56"/>
<path d="M502.13 414.355C506.648 414.355 510.31 410.874 510.31 406.581C510.31 402.287 506.648 398.806 502.13 398.806C497.612 398.806 493.949 402.287 493.949 406.581C493.949 410.874 497.612 414.355 502.13 414.355Z" fill="#3F3D56"/>
<path d="M524.627 414.355C529.145 414.355 532.808 410.874 532.808 406.581C532.808 402.287 529.145 398.806 524.627 398.806C520.109 398.806 516.446 402.287 516.446 406.581C516.446 410.874 520.109 414.355 524.627 414.355Z" fill="#3F3D56"/>
<path d="M547.123 414.355C551.641 414.355 555.304 410.874 555.304 406.581C555.304 402.287 551.641 398.806 547.123 398.806C542.605 398.806 538.942 402.287 538.942 406.581C538.942 410.874 542.605 414.355 547.123 414.355Z" fill="#3F3D56"/>
<path d="M174.994 731.35C172.452 731.35 170.385 733.315 170.385 735.73C170.385 736.908 170.863 737.997 171.732 738.801C172.608 739.654 173.756 740.11 174.994 740.11H543.966C546.507 740.11 548.575 738.145 548.575 735.73C548.575 734.552 548.096 733.463 547.227 732.659C546.351 731.806 545.204 731.35 543.966 731.35H174.994Z" fill="#E6E6E6"/>
<path d="M372.284 729.89V741.57H174.993C173.303 741.57 171.767 740.928 170.661 739.847C169.524 738.796 168.848 737.336 168.848 735.73C168.848 732.518 171.613 729.89 174.993 729.89H372.284V729.89Z" fill="#FFE0B2"/>
<path d="M536.284 707.989H474.83C468.053 707.989 462.539 702.75 462.539 696.309C462.539 689.867 468.053 684.628 474.83 684.628H536.284C543.061 684.628 548.574 689.867 548.574 696.309C548.574 702.75 543.061 707.989 536.284 707.989Z" fill="#E6E6E6"/>
<path d="M305.411 716.337L262.451 579.16L259.163 580.09L301.972 716.784" fill="#2F2E41"/>
<path d="M306.897 404.148C346.106 401.394 374.92 360.949 371.254 313.81C367.588 266.672 332.832 230.691 293.623 233.445C254.414 236.198 225.6 276.644 229.266 323.782C232.932 370.921 267.688 406.902 306.897 404.148Z" fill="#FFE0B2"/>
<path d="M305.406 404.148H301.976V729.268H305.406V404.148Z" fill="#2F2E41"/>
<path d="M264.382 575.186L268.234 586.117L276.685 594.854L254.445 599.986L260.898 588.58L256.716 578.841L264.382 575.186Z" fill="#FFE0B2"/>
<path d="M306.26 397.283L306.672 408.803L312.15 419.468L289.294 418.36L298.901 409.176L297.815 398.709L306.26 397.283Z" fill="#FFE0B2"/>
<path d="M265.538 578.052C302.258 564.702 317.621 518.092 299.85 473.945C282.08 429.798 237.906 404.831 201.185 418.181C164.464 431.53 149.102 478.141 166.873 522.288C184.643 566.435 228.817 591.401 265.538 578.052Z" fill="#FFE0B2"/>
<path d="M577.236 365.685C588.808 369.005 596.384 377.37 594.16 384.368C591.935 391.366 580.753 394.346 569.178 391.023C564.535 389.756 560.279 387.451 556.766 384.3L507.925 369.645L514.072 351.305L562.979 364.755C567.741 363.978 572.63 364.297 577.236 365.685Z" fill="#FFB6B6"/>
<path d="M492.381 245.438L543.842 209.574L542.127 278.042L494.097 336.728L545.557 356.29L543.842 384.222C543.842 384.222 478.658 369.332 468.366 367.702C458.074 366.072 449.497 343.249 449.497 343.249L492.381 245.438Z" fill="#E6E6E6"/>
</g>
<defs>
<clipPath id="clip0_741_4718">
<rect width="900" height="848" fill="white"/>
</clipPath>
</defs>
</svg>
