<svg width="112" height="112" viewBox="0 0 112 112" fill="none" xmlns="http://www.w3.org/2000/svg">
<rect x="1" y="9.56836" width="110" height="101.432" rx="9" stroke="#27496C" stroke-width="2"/>
<line x1="22.5596" y1="2.13708" x2="22.5596" y2="18.4977" stroke="#27496C" stroke-width="2" stroke-linecap="round"/>
<line x1="58.1201" y1="2.13708" x2="58.1201" y2="18.4977" stroke="#27496C" stroke-width="2" stroke-linecap="round"/>
<line x1="93.6797" y1="2.13708" x2="93.6797" y2="18.4977" stroke="#27496C" stroke-width="2" stroke-linecap="round"/>
<rect x="16.5195" y="26.6229" width="19.6" height="15.3005" rx="3" fill="#FFE0B2"/>
<rect x="16.5195" y="54.1639" width="19.6" height="15.3005" rx="3" fill="#C28327"/>
<rect x="16.5195" y="81.705" width="19.6" height="15.3005" rx="3" fill="#E0E0E0"/>
<rect x="47.3203" y="26.6229" width="19.6" height="15.3005" rx="3" fill="#FFE0B2"/>
<rect x="47.3203" y="54.1639" width="19.6" height="15.3005" rx="3" fill="#E0E0E0"/>
<rect x="47.3203" y="81.705" width="19.6" height="15.3005" rx="3" fill="#E0E0E0"/>
<rect x="78.1201" y="26.6229" width="19.6" height="15.3005" rx="3" fill="#FFE0B2"/>
<rect x="78.1201" y="54.1639" width="19.6" height="15.3005" rx="3" fill="#E0E0E0"/>
<rect x="78.1201" y="81.705" width="19.6" height="15.3005" rx="3" fill="#E0E0E0"/>
</svg>
