<svg width="119" height="49" viewBox="0 0 119 49" fill="none" xmlns="http://www.w3.org/2000/svg">
<rect width="119" height="49" rx="4" fill="#FFE8E5"/>
<path d="M31.1234 32.168C30.8354 32.168 30.5874 32.096 30.3794 31.952C30.1714 31.808 30.0434 31.608 29.9954 31.352C29.9634 31.096 30.0274 30.808 30.1874 30.488L32.2754 26.432V27.296L25.6034 16.592C25.4434 16.288 25.3714 16.008 25.3874 15.752C25.4194 15.496 25.5394 15.296 25.7474 15.152C25.9554 14.992 26.2114 14.912 26.5154 14.912C26.8354 14.912 27.0834 14.992 27.2594 15.152C27.4354 15.296 27.6114 15.504 27.7874 15.776L33.4754 25.04H32.9954L37.7234 15.8C37.8674 15.544 38.0274 15.336 38.2034 15.176C38.3794 15 38.6354 14.912 38.9714 14.912C39.2594 14.912 39.4994 14.984 39.6914 15.128C39.8994 15.272 40.0274 15.472 40.0754 15.728C40.1394 15.968 40.0754 16.256 39.8834 16.592L32.3714 31.28C32.2594 31.52 32.1074 31.728 31.9154 31.904C31.7234 32.08 31.4594 32.168 31.1234 32.168ZM50.9802 32.168C50.5802 32.168 50.2762 32.056 50.0682 31.832C49.8602 31.608 49.7562 31.288 49.7562 30.872V27.488C49.3242 27.728 48.8602 27.912 48.3642 28.04C47.8842 28.168 47.3722 28.232 46.8282 28.232C45.1322 28.232 43.8762 27.824 43.0602 27.008C42.2442 26.192 41.8362 24.952 41.8362 23.288V21.344C41.8362 20.944 41.9402 20.64 42.1482 20.432C42.3562 20.224 42.6522 20.12 43.0362 20.12C43.4202 20.12 43.7162 20.224 43.9242 20.432C44.1482 20.64 44.2602 20.944 44.2602 21.344V23.096C44.2602 24.2 44.4842 25 44.9322 25.496C45.3962 25.992 46.1562 26.24 47.2122 26.24C47.7242 26.24 48.1802 26.184 48.5802 26.072C48.9802 25.944 49.3642 25.752 49.7322 25.496V21.392C49.7322 20.544 50.1402 20.12 50.9562 20.12C51.3562 20.12 51.6522 20.232 51.8442 20.456C52.0522 20.664 52.1562 20.976 52.1562 21.392V30.872C52.1562 31.288 52.0602 31.608 51.8682 31.832C51.6762 32.056 51.3802 32.168 50.9802 32.168ZM61.3128 32.216C60.0328 32.216 58.9288 31.976 58.0008 31.496C57.0888 31 56.3768 30.304 55.8648 29.408C55.3688 28.496 55.1208 27.416 55.1208 26.168C55.1208 24.952 55.3688 23.888 55.8648 22.976C56.3608 22.064 57.0408 21.352 57.9048 20.84C58.7688 20.328 59.7528 20.072 60.8568 20.072C61.6728 20.072 62.4008 20.208 63.0408 20.48C63.6808 20.736 64.2248 21.12 64.6728 21.632C65.1368 22.128 65.4808 22.736 65.7048 23.456C65.9448 24.176 66.0648 24.984 66.0648 25.88C66.0648 26.152 65.9848 26.36 65.8248 26.504C65.6648 26.632 65.4248 26.696 65.1048 26.696H57.0408V25.208H64.4328L64.0248 25.544C64.0248 24.744 63.9048 24.064 63.6648 23.504C63.4408 22.944 63.0968 22.52 62.6328 22.232C62.1848 21.928 61.6248 21.776 60.9528 21.776C60.2008 21.776 59.5608 21.952 59.0328 22.304C58.5208 22.656 58.1288 23.144 57.8568 23.768C57.5848 24.392 57.4488 25.12 57.4488 25.952V26.096C57.4488 27.504 57.7768 28.568 58.4328 29.288C59.1048 29.992 60.0728 30.344 61.3368 30.344C61.8168 30.344 62.3208 30.28 62.8488 30.152C63.3928 30.024 63.9048 29.808 64.3848 29.504C64.6568 29.344 64.8968 29.272 65.1048 29.288C65.3288 29.304 65.5048 29.376 65.6328 29.504C65.7768 29.632 65.8648 29.792 65.8968 29.984C65.9288 30.176 65.8968 30.376 65.8008 30.584C65.7048 30.776 65.5368 30.952 65.2968 31.112C64.7528 31.48 64.1208 31.76 63.4008 31.952C62.6808 32.128 61.9848 32.216 61.3128 32.216ZM74.1252 32.216C72.9252 32.216 71.8852 31.968 71.0052 31.472C70.1252 30.96 69.4452 30.208 68.9652 29.216C68.5012 28.208 68.2692 26.968 68.2692 25.496V23.72C68.2692 22.152 68.4852 20.848 68.9172 19.808C69.3652 18.752 70.0292 17.904 70.9092 17.264C71.7892 16.608 72.8852 16.112 74.1972 15.776L77.5332 14.888C77.8692 14.792 78.1572 14.808 78.3972 14.936C78.6372 15.064 78.7972 15.288 78.8772 15.608C78.9412 15.944 78.8852 16.224 78.7092 16.448C78.5492 16.672 78.2932 16.832 77.9412 16.928L74.3652 17.84C73.5332 18.048 72.8372 18.376 72.2772 18.824C71.7172 19.272 71.2932 19.824 71.0052 20.48C70.7172 21.136 70.5732 21.888 70.5732 22.736V23.84H70.2132C70.3892 23.152 70.6772 22.544 71.0772 22.016C71.4932 21.488 72.0052 21.08 72.6132 20.792C73.2372 20.488 73.9492 20.336 74.7492 20.336C75.7412 20.336 76.6132 20.576 77.3652 21.056C78.1332 21.536 78.7332 22.216 79.1652 23.096C79.5972 23.96 79.8132 24.992 79.8132 26.192C79.8132 27.424 79.5732 28.488 79.0932 29.384C78.6292 30.28 77.9732 30.976 77.1252 31.472C76.2772 31.968 75.2772 32.216 74.1252 32.216ZM74.0292 30.344C74.7332 30.344 75.3332 30.192 75.8292 29.888C76.3252 29.568 76.7012 29.104 76.9572 28.496C77.2292 27.888 77.3652 27.152 77.3652 26.288C77.3652 24.992 77.0692 23.992 76.4772 23.288C75.8852 22.568 75.0692 22.208 74.0292 22.208C73.3412 22.208 72.7492 22.368 72.2532 22.688C71.7572 23.008 71.3732 23.456 71.1012 24.032C70.8452 24.608 70.7172 25.304 70.7172 26.12C70.7172 27.496 71.0052 28.544 71.5812 29.264C72.1732 29.984 72.9892 30.344 74.0292 30.344ZM86.5608 32.216C85.7448 32.216 85.0088 32.056 84.3528 31.736C83.7128 31.416 83.2088 30.984 82.8408 30.44C82.4728 29.896 82.2888 29.28 82.2888 28.592C82.2888 27.728 82.5048 27.048 82.9368 26.552C83.3848 26.04 84.1128 25.68 85.1208 25.472C86.1448 25.248 87.5208 25.136 89.2488 25.136H90.3768V26.624H89.2728C88.1208 26.624 87.2088 26.68 86.5368 26.792C85.8648 26.904 85.3848 27.096 85.0968 27.368C84.8248 27.624 84.6888 27.984 84.6888 28.448C84.6888 29.056 84.8968 29.552 85.3128 29.936C85.7288 30.304 86.3048 30.488 87.0408 30.488C87.6328 30.488 88.1528 30.352 88.6008 30.08C89.0488 29.792 89.4008 29.408 89.6568 28.928C89.9288 28.448 90.0648 27.896 90.0648 27.272V24.512C90.0648 23.6 89.8728 22.944 89.4888 22.544C89.1048 22.144 88.4728 21.944 87.5928 21.944C87.0808 21.944 86.5448 22.008 85.9848 22.136C85.4408 22.264 84.8728 22.48 84.2808 22.784C84.0088 22.912 83.7768 22.952 83.5848 22.904C83.3928 22.856 83.2408 22.752 83.1288 22.592C83.0168 22.416 82.9528 22.232 82.9368 22.04C82.9368 21.832 82.9848 21.632 83.0808 21.44C83.1928 21.248 83.3768 21.104 83.6328 21.008C84.3368 20.672 85.0328 20.432 85.7208 20.288C86.4088 20.144 87.0568 20.072 87.6648 20.072C88.7368 20.072 89.6168 20.24 90.3048 20.576C91.0088 20.912 91.5288 21.424 91.8648 22.112C92.2008 22.8 92.3688 23.688 92.3688 24.776V30.944C92.3688 31.328 92.2728 31.632 92.0808 31.856C91.8888 32.064 91.6088 32.168 91.2408 32.168C90.8888 32.168 90.6088 32.064 90.4008 31.856C90.1928 31.632 90.0888 31.328 90.0888 30.944V29.384H90.3048C90.1768 29.976 89.9368 30.488 89.5848 30.92C89.2488 31.336 88.8248 31.656 88.3128 31.88C87.8008 32.104 87.2168 32.216 86.5608 32.216Z" fill="#424242"/>
</svg>
