<svg width="32" height="32" viewBox="0 0 32 32" fill="none" xmlns="http://www.w3.org/2000/svg">
<path fill-rule="evenodd" clip-rule="evenodd" d="M13.334 15.9999C13.334 14.5272 14.5279 13.3333 16.0007 13.3333C17.4734 13.3333 18.6673 14.5272 18.6673 15.9999C18.6673 17.4727 17.4734 18.6666 16.0007 18.6666C14.5279 18.6666 13.334 17.4727 13.334 15.9999Z" stroke="#424242" stroke-linecap="round" stroke-linejoin="round"/>
<path fill-rule="evenodd" clip-rule="evenodd" d="M13.334 6.66667C13.334 5.19391 14.5279 4 16.0007 4C17.4734 4 18.6673 5.19391 18.6673 6.66667C18.6673 8.13943 17.4734 9.33333 16.0007 9.33333C14.5279 9.33333 13.334 8.13943 13.334 6.66667Z" stroke="#424242" stroke-linecap="round" stroke-linejoin="round"/>
<path fill-rule="evenodd" clip-rule="evenodd" d="M13.334 25.3334C13.334 23.8607 14.5279 22.6667 16.0007 22.6667C17.4734 22.6667 18.6673 23.8607 18.6673 25.3334C18.6673 26.8062 17.4734 28.0001 16.0007 28.0001C14.5279 28.0001 13.334 26.8062 13.334 25.3334Z" stroke="#424242" stroke-linecap="round" stroke-linejoin="round"/>
</svg>
