<svg width="30" height="27" viewBox="0 0 30 27" fill="none" xmlns="http://www.w3.org/2000/svg">
<path fill-rule="evenodd" clip-rule="evenodd" d="M10.8262 0C9.16932 0 7.82617 1.34314 7.82617 3V5.46169C7.83843 3.81533 9.17684 2.4845 10.8261 2.4845H24.8882C26.5451 2.4845 27.8882 3.82765 27.8882 5.4845V20.6025C27.8882 22.2594 26.5451 23.6025 24.8882 23.6025H10.8261C9.17684 23.6025 7.83843 22.2717 7.82617 20.6253V23.087C7.82617 24.7438 9.16932 26.087 10.8262 26.087H27.0001C28.6569 26.087 30.0001 24.7438 30.0001 23.087V3C30.0001 1.34315 28.6569 0 27.0001 0H10.8262Z" fill="#424242"/>
<path d="M20.8696 13.0435L15.8696 10.1567V15.9302L20.8696 13.0435ZM0 13.5435H16.3696V12.5435H0V13.5435Z" fill="#424242"/>
</svg>
